<svg class="animated" id="freepik_stories-download" xmlns="http://www.w3.org/2000/svg" viewBox="0 0 500 500" version="1.1" xmlns:xlink="http://www.w3.org/1999/xlink" xmlns:svgjs="http://svgjs.com/svgjs"><style>svg#freepik_stories-download:not(.animated) .animable {opacity: 0;}svg#freepik_stories-download.animated #freepik--Character--inject-6 {animation: 1.5s Infinite  linear floating;animation-delay: 0s;}            @keyframes floating {                0% {                    opacity: 1;                    transform: translateY(0px);                }                50% {                    transform: translateY(-10px);                }                100% {                    opacity: 1;                    transform: translateY(0px);                }            }        </style><g id="freepik--background-complete--inject-6" class="animable" style="transform-origin: 250px 228.23px;"><rect y="382.4" width="500" height="0.25" style="fill: rgb(235, 235, 235); transform-origin: 250px 382.525px;" id="elt8wwb7vb3o" class="animable"></rect><rect x="416.78" y="398.49" width="33.12" height="0.25" style="fill: rgb(235, 235, 235); transform-origin: 433.34px 398.615px;" id="elt8b6pzy1xg" class="animable"></rect><rect x="322.53" y="401.21" width="8.69" height="0.25" style="fill: rgb(235, 235, 235); transform-origin: 326.875px 401.335px;" id="elr4slyj5v4m" class="animable"></rect><rect x="396.59" y="389.21" width="19.19" height="0.25" style="fill: rgb(235, 235, 235); transform-origin: 406.185px 389.335px;" id="eld0k7dhi0h8n" class="animable"></rect><rect x="52.46" y="390.89" width="43.19" height="0.25" style="fill: rgb(235, 235, 235); transform-origin: 74.055px 391.015px;" id="elsdvvzid5ql8" class="animable"></rect><rect x="104.56" y="390.89" width="6.33" height="0.25" style="fill: rgb(235, 235, 235); transform-origin: 107.725px 391.015px;" id="elia0qnvwwmf" class="animable"></rect><rect x="131.47" y="395.11" width="93.68" height="0.25" style="fill: rgb(235, 235, 235); transform-origin: 178.31px 395.235px;" id="elbmegerjvhk" class="animable"></rect><path d="M237,337.8H43.91a5.71,5.71,0,0,1-5.7-5.71V60.66A5.71,5.71,0,0,1,43.91,55H237a5.71,5.71,0,0,1,5.71,5.71V332.09A5.71,5.71,0,0,1,237,337.8ZM43.91,55.2a5.46,5.46,0,0,0-5.45,5.46V332.09a5.46,5.46,0,0,0,5.45,5.46H237a5.47,5.47,0,0,0,5.46-5.46V60.66A5.47,5.47,0,0,0,237,55.2Z" style="fill: rgb(235, 235, 235); transform-origin: 140.46px 196.4px;" id="elysxanwpi78" class="animable"></path><path d="M453.31,337.8H260.21a5.72,5.72,0,0,1-5.71-5.71V60.66A5.72,5.72,0,0,1,260.21,55h193.1A5.71,5.71,0,0,1,459,60.66V332.09A5.71,5.71,0,0,1,453.31,337.8ZM260.21,55.2a5.47,5.47,0,0,0-5.46,5.46V332.09a5.47,5.47,0,0,0,5.46,5.46h193.1a5.47,5.47,0,0,0,5.46-5.46V60.66a5.47,5.47,0,0,0-5.46-5.46Z" style="fill: rgb(235, 235, 235); transform-origin: 356.75px 196.4px;" id="elbrkl50vhn15" class="animable"></path><g id="el9cuydlcyj2u"><rect x="310.81" y="123.52" width="123.46" height="82.54" style="fill: rgb(230, 230, 230); transform-origin: 372.54px 164.79px; transform: rotate(90deg);" class="animable" id="elhqitv4qs7e"></rect></g><g id="eldfqncwdoeft"><rect x="308.3" y="123.52" width="123.46" height="82.54" style="fill: rgb(245, 245, 245); transform-origin: 370.03px 164.79px; transform: rotate(90deg);" class="animable" id="elx16du31dajc"></rect></g><rect x="339.37" y="113.66" width="61.32" height="102.25" style="fill: rgb(255, 255, 255); transform-origin: 370.03px 164.785px;" id="elzkepdw5z6z" class="animable"></rect><g id="elluig40hb3mf"><rect x="288.94" y="164.09" width="102.25" height="1.39" style="fill: rgb(230, 230, 230); transform-origin: 340.065px 164.785px; transform: rotate(90deg);" class="animable" id="el8csxmp97er5"></rect></g><g id="el9lrxux4dw47"><rect x="214.82" y="269.51" width="35" height="112.89" style="fill: rgb(230, 230, 230); transform-origin: 232.32px 325.955px; transform: rotate(180deg);" class="animable" id="elv14hjjup8ms"></rect></g><polygon points="221.47 382.4 214.82 382.4 214.82 366.38 228.44 366.38 221.47 382.4" style="fill: rgb(240, 240, 240); transform-origin: 221.63px 374.39px;" id="elcu9hengvryd" class="animable"></polygon><g id="el6iapin0cer6"><rect x="401.85" y="269.51" width="35" height="112.89" style="fill: rgb(230, 230, 230); transform-origin: 419.35px 325.955px; transform: rotate(180deg);" class="animable" id="el9v3ez8hdca"></rect></g><g id="elv2vo89ndx5"><rect x="214.82" y="269.51" width="192.83" height="110.54" style="fill: rgb(240, 240, 240); transform-origin: 311.235px 324.78px; transform: rotate(-180deg);" class="animable" id="elrwoamu7wrk"></rect></g><g id="el5h7f1131w1r"><rect x="265.84" y="230.37" width="25.41" height="117.14" style="fill: rgb(230, 230, 230); transform-origin: 278.545px 288.94px; transform: rotate(-90deg);" class="animable" id="elhb33z9agzsi"></rect></g><g id="el7gm7emvdy6u"><rect x="359.33" y="258.48" width="25.41" height="60.92" style="fill: rgb(230, 230, 230); transform-origin: 372.035px 288.94px; transform: rotate(-90deg);" class="animable" id="ellbedd253pre"></rect></g><path d="M366,279.31h12.05a27.09,27.09,0,0,0,13.84-3.46H352.17A27.09,27.09,0,0,0,366,279.31Z" style="fill: rgb(240, 240, 240); transform-origin: 372.03px 277.583px;" id="elsvy3w7e9hm" class="animable"></path><path d="M243.79,279.31h68.27a27.09,27.09,0,0,0,13.84-3.46H230A27.11,27.11,0,0,0,243.79,279.31Z" style="fill: rgb(240, 240, 240); transform-origin: 277.95px 277.583px;" id="elzd0dsqh55ai" class="animable"></path><g id="eloq9x277ym8k"><rect x="265.84" y="263.06" width="25.41" height="117.14" style="fill: rgb(230, 230, 230); transform-origin: 278.545px 321.63px; transform: rotate(-90deg);" class="animable" id="elbohwswh5lzg"></rect></g><g id="els0rr2bqjqpe"><rect x="359.33" y="291.17" width="25.41" height="60.92" style="fill: rgb(230, 230, 230); transform-origin: 372.035px 321.63px; transform: rotate(-90deg);" class="animable" id="elag1p6uw9sb"></rect></g><path d="M366,312h12.05a27.18,27.18,0,0,0,13.84-3.45H352.17A27.18,27.18,0,0,0,366,312Z" style="fill: rgb(240, 240, 240); transform-origin: 372.03px 310.278px;" id="elc1fmlzdb1j9" class="animable"></path><path d="M243.79,312h68.27a27.09,27.09,0,0,0,13.84-3.46H230A27.11,27.11,0,0,0,243.79,312Z" style="fill: rgb(240, 240, 240); transform-origin: 277.95px 310.273px;" id="elvo9n1vtstso" class="animable"></path><g id="el6knhfwngpn9"><rect x="265.84" y="295.74" width="25.41" height="117.14" style="fill: rgb(230, 230, 230); transform-origin: 278.545px 354.31px; transform: rotate(-90deg);" class="animable" id="el622c6vnfi0a"></rect></g><g id="el9ffoo7ppc4"><rect x="359.33" y="323.85" width="25.41" height="60.92" style="fill: rgb(230, 230, 230); transform-origin: 372.035px 354.31px; transform: rotate(-90deg);" class="animable" id="elox4mbjp792"></rect></g><path d="M366,344.68h12.05a27.09,27.09,0,0,0,13.84-3.46H352.17A27.11,27.11,0,0,0,366,344.68Z" style="fill: rgb(240, 240, 240); transform-origin: 372.03px 342.953px;" id="el5t50cwojs7u" class="animable"></path><path d="M243.8,344.68h68.26a27.15,27.15,0,0,0,13.85-3.46H230A27.09,27.09,0,0,0,243.8,344.68Z" style="fill: rgb(240, 240, 240); transform-origin: 277.955px 342.953px;" id="elb691t7iuupp" class="animable"></path><polygon points="401.01 382.4 407.65 382.4 407.65 366.38 394.04 366.38 401.01 382.4" style="fill: rgb(240, 240, 240); transform-origin: 400.845px 374.39px;" id="elani1lzb1jy" class="animable"></polygon><path d="M419.23,249.42s-1,11.47-40,11.47-39.94-11.47-39.94-11.47Z" style="fill: rgb(250, 250, 250); transform-origin: 379.26px 255.155px;" id="el22c3o0np6cs" class="animable"></path><path d="M419.23,258s-1,11.47-40,11.47S339.34,258,339.34,258Z" style="fill: rgb(235, 235, 235); transform-origin: 379.285px 263.735px;" id="elrz941750s8" class="animable"></path><polygon points="146.59 382.4 186.61 382.4 174.75 279.47 146.59 279.47 146.59 382.4" style="fill: rgb(230, 230, 230); transform-origin: 166.6px 330.935px;" id="eljpklusvvywa" class="animable"></polygon><polygon points="79.05 382.4 168.05 382.4 177.44 261.93 88.44 261.93 79.05 382.4" style="fill: rgb(224, 224, 224); transform-origin: 128.245px 322.165px;" id="el2tojpe440aw" class="animable"></polygon><polygon points="72.64 382.4 165.26 382.4 174.65 261.93 82.04 261.93 72.64 382.4" style="fill: rgb(245, 245, 245); transform-origin: 123.645px 322.165px;" id="elu47ch0ukcxk" class="animable"></polygon><polygon points="156.51 372.9 164.42 271.42 90.79 271.42 82.88 372.9 156.51 372.9" style="fill: rgb(255, 255, 255); transform-origin: 123.65px 322.16px;" id="elo4ds80d816i" class="animable"></polygon><rect x="62.23" y="75.69" width="226.79" height="165.29" style="fill: rgb(235, 235, 235); transform-origin: 175.625px 158.335px;" id="ely32nrec32qj" class="animable"></rect><rect x="69.99" y="84.43" width="211.27" height="147.8" style="fill: rgb(250, 250, 250); transform-origin: 175.625px 158.33px;" id="elkpzoztxxgqc" class="animable"></rect><polygon points="115.45 232.24 93.28 232.24 114.16 84.43 136.33 84.43 115.45 232.24" style="fill: rgb(255, 255, 255); transform-origin: 114.805px 158.335px;" id="el4uj3yw45n75" class="animable"></polygon><polygon points="170.24 232.24 148.06 232.24 168.94 84.43 191.12 84.43 170.24 232.24" style="fill: rgb(255, 255, 255); transform-origin: 169.59px 158.335px;" id="elodt2xskfng" class="animable"></polygon><polygon points="240.87 232.24 229.78 232.24 250.66 84.43 261.75 84.43 240.87 232.24" style="fill: rgb(255, 255, 255); transform-origin: 245.765px 158.335px;" id="ellemsvhq6ik" class="animable"></polygon><polygon points="189.74 232.24 178.65 232.24 199.53 84.43 210.62 84.43 189.74 232.24" style="fill: rgb(255, 255, 255); transform-origin: 194.635px 158.335px;" id="elyyz08in6umr" class="animable"></polygon><rect x="130.36" y="84.43" width="10.45" height="147.8" style="fill: rgb(235, 235, 235); transform-origin: 135.585px 158.33px;" id="elzuwe2gv5hdo" class="animable"></rect><g id="elceffmq9elcp"><rect x="140.81" y="84.43" width="2.33" height="147.8" style="fill: rgb(224, 224, 224); transform-origin: 141.975px 158.33px; transform: rotate(180deg);" class="animable" id="elpjh6go58czl"></rect></g><g id="elitfp96hjxsn"><rect x="289.02" y="75.69" width="1.67" height="165.29" style="fill: rgb(224, 224, 224); transform-origin: 289.855px 158.335px; transform: rotate(180deg);" class="animable" id="el5vokgh2pb9e"></rect></g></g><g id="freepik--Shadow--inject-6" class="animable" style="transform-origin: 250px 416.24px;"><ellipse id="freepik--path--inject-6" cx="250" cy="416.24" rx="193.89" ry="11.32" style="fill: rgb(245, 245, 245); transform-origin: 250px 416.24px;" class="animable"></ellipse></g><g id="freepik--Character--inject-6" class="animable" style="transform-origin: 256.879px 241.9px;"><polygon points="296.58 387.31 309.26 379.99 317 395.48 306.41 401.62 296.58 387.31" style="fill: rgb(255, 195, 189); transform-origin: 306.79px 390.805px;" id="elvncl9mnljy" class="animable"></polygon><g id="elbnq967oecq4"><polygon points="296.59 387.31 309.27 379.99 313.6 388.67 302.09 395.33 296.59 387.31" style="opacity: 0.2; transform-origin: 305.095px 387.66px;" class="animable" id="eloi4rvldlsxe"></polygon></g><path d="M301.14,337.35c9-20.8,23.77-45,17.71-67.28l-40.36-6.38s-8.34,49.86-6.69,70.31c1.72,21.26,26.82,59,26.82,59l14.45-8.48S306.79,352.26,301.14,337.35Z" style="fill: #89169A; transform-origin: 295.926px 328.345px;" id="elef0y8q3fvuw" class="animable"></path><g id="elugzqag1alad"><g style="opacity: 0.4; transform-origin: 295.926px 328.345px;" class="animable" id="elgb4670a7nu7"><path d="M301.14,337.35c9-20.8,23.77-45,17.71-67.28l-40.36-6.38s-8.34,49.86-6.69,70.31c1.72,21.26,26.82,59,26.82,59l14.45-8.48S306.79,352.26,301.14,337.35Z" id="elde7pfx0x9i8" class="animable" style="transform-origin: 295.926px 328.345px;"></path></g></g><polygon points="314.53 384.35 298.02 394.1 292.76 387.27 312.22 376.96 314.53 384.35" style="fill: #89169A; transform-origin: 303.645px 385.53px;" id="eldtrozdtrxsf" class="animable"></polygon><g id="elapgnpmebr5u"><path d="M304.09,330.78c4.86-10.53,10.46-21.75,13.63-33C308.19,299.38,300.11,307.12,304.09,330.78Z" style="opacity: 0.2; transform-origin: 310.386px 314.28px;" class="animable" id="elbs7467vlbq9"></path></g><path d="M316.58,391.81a.6.6,0,0,0-1,.05c-2.08,3.57-8.07,7-10.39,8.22a2.38,2.38,0,0,0-1.13,1.37c-1.13,3.48-5.6,8.68-5.6,8.68a11,11,0,0,0,.81,2.32,1.7,1.7,0,0,0,2.59.59l18.41-15a1.42,1.42,0,0,0,.1-2.13A41.22,41.22,0,0,1,316.58,391.81Z" style="fill: rgb(38, 50, 56); transform-origin: 309.632px 402.488px;" id="el9wrvitqhl69" class="animable"></path><polygon points="320.39 394.37 335.02 394.51 333.69 411.79 321.46 411.69 320.39 394.37" style="fill: rgb(255, 195, 189); transform-origin: 327.705px 403.08px;" id="el0s85gzdm7pqh" class="animable"></polygon><path d="M335,409.13a.54.54,0,0,0-.73-.57c-4,1.46-10.71.35-13.24-.16a2.45,2.45,0,0,0-1.77.35c-3.24,2-9,3.2-9,3.2a12.58,12.58,0,0,0-1,2.19,1.69,1.69,0,0,0,1.6,2.22l22.56,0a1.43,1.43,0,0,0,1.43-1.48A40.62,40.62,0,0,1,335,409.13Z" style="fill: rgb(38, 50, 56); transform-origin: 322.089px 412.36px;" id="elty1tc2348j" class="animable"></path><g id="elugb0pjj1qoi"><polygon points="320.39 394.38 335.03 394.51 334.28 404.19 320.99 404.07 320.39 394.38" style="opacity: 0.2; transform-origin: 327.71px 399.285px;" class="animable" id="elumxqznfy1o"></polygon></g><path d="M344.29,336.16c4.56-21.73,12.77-50,7-61.2L304,267.64s5.87,45,7.42,65.91c1.61,21.77,8,66.76,8,66.76l15.83,0S346.3,362.08,344.29,336.16Z" style="fill: #89169A; transform-origin: 328.636px 333.975px;" id="elvbykjawh2s" class="animable"></path><g id="eli5om7p97ljf"><path d="M344.29,336.16c4.56-21.73,12.77-50,7-61.2L304,267.64s5.87,45,7.42,65.91c1.61,21.77,8,66.76,8,66.76l15.83,0S346.3,362.08,344.29,336.16Z" style="opacity: 0.4; transform-origin: 328.636px 333.975px;" class="animable" id="el51c1zth89g7"></path></g><polygon points="337 400.95 317.95 400.95 317.65 393.01 338.64 393.35 337 400.95" style="fill: #89169A; transform-origin: 328.145px 396.98px;" id="elop2dre9ws1" class="animable"></polygon><path d="M316.5,199l-1.2,1-1.12.88c-.75.57-1.5,1.11-2.26,1.66-1.5,1.09-3.05,2.1-4.6,3.12a107.91,107.91,0,0,1-9.75,5.56,80.26,80.26,0,0,1-10.7,4.52,52.18,52.18,0,0,1-12.25,2.72l-.81.08a8.19,8.19,0,0,1-5.79-1.66,22.69,22.69,0,0,1-6.68-8.5,26.25,26.25,0,0,1-1.6-4.26,36.25,36.25,0,0,1-1-4.11q-.31-2-.48-4c-.09-1.31-.11-2.61-.11-3.9s.1-2.56.21-3.82l.23-1.91.33-2a5.2,5.2,0,0,1,9.91-1.2l.42,1c.15.37.33.94.51,1.42l.52,1.49c.34,1,.72,2,1.09,3a51.71,51.71,0,0,0,2.39,5.44,21.28,21.28,0,0,0,2.69,4.21,4.86,4.86,0,0,0,2.23,1.71l-6.6-1.59a43.22,43.22,0,0,0,7.66-2.65c1.33-.58,2.67-1.25,4-1.95s2.7-1.42,4-2.2c2.68-1.56,5.38-3.22,8-5,1.33-.87,2.64-1.78,3.95-2.67l1.94-1.37,1.79-1.27.41-.29A10.41,10.41,0,0,1,316.5,199Z" style="fill: rgb(255, 195, 189); transform-origin: 289.363px 199.303px;" id="elj6c97xw2y0a" class="animable"></path><path d="M268.85,183.94l-5.17,3.37c-6.33,1.39-6.71-7.06-6.71-7.06l-1.82-4a3.27,3.27,0,0,1,1.41-4l3.59-2.38a3.41,3.41,0,0,1,4.72.59l2.14,3.18a6.83,6.83,0,0,1,1.12,3.09Z" style="fill: rgb(255, 195, 189); transform-origin: 261.891px 178.322px;" id="elgekdwutdm1u" class="animable"></path><path d="M316.16,178c-9.9-.59-30.25,12.18-30.25,12.18-2.34,7.46,1.74,21.6,7.71,25.1,0,0,15.15-6.51,22.27-12.84C324.51,194.81,336.19,179.2,316.16,178Z" style="fill: rgb(38, 50, 56); transform-origin: 306.221px 196.63px;" id="elyiuficjaazr" class="animable"></path><path d="M317.08,178a185.35,185.35,0,0,1,40.13,6.87c7.55,2.28,12.25,7.93,8.87,23.59-6.86,31.77-6.3,57.72-12.17,68.62,0,0-68.68,4.24-77.87-11.6,1.86-39.23,20.66-69.12,29-81.48A13.7,13.7,0,0,1,317.08,178Z" style="fill: rgb(38, 50, 56); transform-origin: 321.617px 227.789px;" id="elothh2kp8vio" class="animable"></path><path d="M321,182.37c1.77-1.27,3.24-.15,4.34-2.3a7.92,7.92,0,0,0,0-5.35l19.84-7.05c-1.4,6.68-2.5,12,.07,15.1.09,5.15-11.82,9.86-21.88,7.95C314.44,189,318.42,184.2,321,182.37Z" style="fill: rgb(255, 195, 189); transform-origin: 331.549px 179.412px;" id="elba1kcbm6dpk" class="animable"></path><g id="eltl85wt6lm5j"><path d="M325.45,175.33l15-1.38c-4.54,5.18-11.61,7.31-14.93,5.37A8,8,0,0,0,325.45,175.33Z" style="opacity: 0.2; transform-origin: 332.95px 176.989px;" class="animable" id="elassu66l2wev"></path></g><path d="M324,156.53c-.79-7.69,6.7-17.42,13-14.06S324,156.53,324,156.53Z" style="fill: rgb(38, 50, 56); transform-origin: 331.103px 149.158px;" id="eldph6wo9abao" class="animable"></path><path d="M350.41,160.92c-4,8.75-6.86,14.62-13.51,16.42-13.2,3.59-17.55-3.66-16.28-13.46,1.15-8.81,7.45-21.66,17.58-21.8A13.26,13.26,0,0,1,350.41,160.92Z" style="fill: rgb(255, 195, 189); transform-origin: 336.025px 160.176px;" id="elcu77sjt9mwc" class="animable"></path><path d="M348.12,167.93c-4.53-.65-7.85-8.83-3.11-13.11s3.11-8.38-.33-9.6-9.69-.34-11.12-3.4,8.1-5.28,13.63-1.76,5.25,1.39,5.25,1.39a1.33,1.33,0,0,1-1,2.18c4.35,2.89,9.17,9.85,4.68,12.7C361.74,159.52,353,167.08,348.12,167.93Z" style="fill: rgb(38, 50, 56); transform-origin: 345.678px 153.096px;" id="elhsll8iijs1q" class="animable"></path><path d="M354.69,155.85a3.48,3.48,0,0,0,4.3-1.3S359.94,158.27,354.69,155.85Z" style="fill: rgb(38, 50, 56); transform-origin: 356.874px 155.609px;" id="elv9c84y2d5pc" class="animable"></path><path d="M332.49,165.13a7.8,7.8,0,0,0,1.23-.66.23.23,0,0,0,0-.33.28.28,0,0,0-.36-.07,7,7,0,0,1-6,.85.23.23,0,1,0-.17.43A7.3,7.3,0,0,0,332.49,165.13Z" style="fill: rgb(38, 50, 56); transform-origin: 330.417px 164.889px;" id="el68xupm9e52g" class="animable"></path><g id="elwvd5s3zcbjp"><path d="M337.82,158.23a4.35,4.35,0,0,1,3.26.61A8.63,8.63,0,0,1,337.82,158.23Z" style="opacity: 0.2; transform-origin: 339.45px 158.489px;" class="animable" id="elecj5x2wvz47"></path></g><g id="eloag434pywl"><path d="M337.73,159a3.56,3.56,0,0,1,2.72,1.27A7.09,7.09,0,0,1,337.73,159Z" style="opacity: 0.2; transform-origin: 339.09px 159.635px;" class="animable" id="elbszkifavs4a"></path></g><path d="M349.85,170.4a9,9,0,0,1-6.57,2.29c-3.2-.22-2.78-2.74-1-5.2,1.58-2.23,4.17-5.4,7-4S352,168.41,349.85,170.4Z" style="fill: rgb(255, 195, 189); transform-origin: 346.171px 167.926px;" id="els5y915bpz3o" class="animable"></path><path d="M336,158c-.28.73-.9,1.17-1.37,1s-.64-.93-.36-1.66.89-1.17,1.37-1S336.24,157.22,336,158Z" style="fill: rgb(38, 50, 56); transform-origin: 335.127px 157.67px;" id="elq4s34yq448" class="animable"></path><path d="M327.51,154.66c-.27.73-.89,1.17-1.36,1s-.64-.93-.36-1.66.89-1.17,1.36-1S327.79,153.93,327.51,154.66Z" style="fill: rgb(38, 50, 56); transform-origin: 326.65px 154.33px;" id="elj5zhytszfvc" class="animable"></path><path d="M330.15,155.85l-2.13,6.4a4.15,4.15,0,0,1-4.24-1.41C325.9,157.55,330.15,155.85,330.15,155.85Z" style="fill: rgb(237, 132, 126); transform-origin: 326.965px 159.113px;" id="eldjrznu4ots6" class="animable"></path><path d="M339.85,153.69a.36.36,0,0,0,.23,0,.46.46,0,0,0,.36-.54,4.61,4.61,0,0,0-2.52-3.37.45.45,0,0,0-.6.25.47.47,0,0,0,.25.6h0a3.67,3.67,0,0,1,2,2.69A.46.46,0,0,0,339.85,153.69Z" style="fill: rgb(38, 50, 56); transform-origin: 338.869px 151.726px;" id="elkymz699z0vo" class="animable"></path><path d="M324.34,151.24a.44.44,0,0,0,.42-.1,3.62,3.62,0,0,1,3.18-.92.45.45,0,0,0,.56-.32.46.46,0,0,0-.32-.57,4.56,4.56,0,0,0-4,1.12.46.46,0,0,0,0,.65A.44.44,0,0,0,324.34,151.24Z" style="fill: rgb(38, 50, 56); transform-origin: 326.282px 150.248px;" id="elt51to7yxm4" class="animable"></path><path d="M218.44,209l-4.34,11.85a6,6,0,0,1-4.71,3.95l-57.67,8.73c-3.72.57-5.92,4.39-4.91,8.53L167,325.2c1,4.15,4.84,7.05,8.56,6.49L312.83,310.9c3.72-.57,5.92-4.38,4.92-8.53L293.42,202.18c-1-4.15-4.84-7.05-8.56-6.49L223.15,205A6,6,0,0,0,218.44,209Z" style="fill: #89169A; transform-origin: 232.278px 263.69px;" id="eliygexrg8wu" class="animable"></path><g id="elpqnaazjr81s"><path d="M218.44,209l-4.34,11.85a6,6,0,0,1-4.71,3.95l-57.67,8.73c-3.72.57-5.92,4.39-4.91,8.53L167,325.2c1,4.15,4.84,7.05,8.56,6.49L312.83,310.9c3.72-.57,5.92-4.38,4.92-8.53L293.42,202.18c-1-4.15-4.84-7.05-8.56-6.49L223.15,205A6,6,0,0,0,218.44,209Z" style="opacity: 0.3; transform-origin: 232.278px 263.69px;" class="animable" id="el3pkqot8rq7j"></path></g><path d="M188.85,87.41a38.65,38.65,0,0,1,4.05.22A48.67,48.67,0,0,1,277.7,98.4,33.45,33.45,0,0,1,272,164.82H188.85a38.71,38.71,0,0,1,0-77.41Z" style="fill: #89169A; transform-origin: 228.133px 116.13px;" id="el59qajteivjs" class="animable"></path><polygon points="192.44 151.28 192.44 247.78 263.2 247.78 263.2 172.29 242.2 151.28 192.44 151.28" style="fill: #89169A; transform-origin: 227.82px 199.53px;" id="el7esv4e5rzkr" class="animable"></polygon><g id="el97f0i684l4"><polygon points="192.44 151.28 192.44 247.78 263.2 247.78 263.2 172.29 242.2 151.28 192.44 151.28" style="fill: rgb(255, 255, 255); opacity: 0.6; transform-origin: 227.82px 199.53px;" class="animable" id="el0zsqdzhhta"></polygon></g><g id="elfdnbp9x349n"><polygon points="242.2 172.29 242.2 151.28 263.2 172.29 242.2 172.29" style="fill: #89169A; opacity: 0.4; transform-origin: 252.7px 161.785px;" class="animable" id="elp1u3ryi5wg"></polygon></g><g id="elqy4kz7c6s3l"><rect x="189.75" y="331.71" width="5.07" height="1.01" style="fill: #89169A; transform-origin: 192.285px 332.215px; transform: rotate(-8.59deg);" class="animable" id="elezk69k1oras"></rect></g><g id="elk3ogw81e7hb"><rect x="200.31" y="329.15" width="17.71" height="1.01" style="fill: #89169A; transform-origin: 209.165px 329.655px; transform: rotate(-8.59deg);" class="animable" id="elkqqrlf2g3bd"></rect></g><path d="M243.68,218.47l-6.53,10.89A7.7,7.7,0,0,1,231.8,233l-57.66,8.74a7.77,7.77,0,0,0-6.44,7.86l3.35,75.84a6,6,0,0,0,7,5.83l137.27-20.8a7.77,7.77,0,0,0,6.44-7.86l-4-91.38a6,6,0,0,0-7-5.83L249,214.79A7.66,7.66,0,0,0,243.68,218.47Z" style="fill: #89169A; transform-origin: 244.73px 268.335px;" id="elvgvijj5lgfi" class="animable"></path><path d="M245.69,137.29a1.24,1.24,0,0,1-.88-2.12,24,24,0,1,0-34,0,1.24,1.24,0,0,1,0,1.76,1.26,1.26,0,0,1-1.76,0,26.51,26.51,0,1,1,37.49,0A1.24,1.24,0,0,1,245.69,137.29Z" style="fill: rgb(255, 255, 255); transform-origin: 227.795px 114.482px;" id="elpdepqg544k" class="animable"></path><path d="M238.45,144.72V117.05a4.51,4.51,0,0,0-4.51-4.51H221.7a4.51,4.51,0,0,0-4.51,4.51v27.67h-4.61l15.24,13.13,15.23-13.13Z" style="fill: rgb(255, 255, 255); transform-origin: 227.815px 135.195px;" id="ell3o5mpktjuh" class="animable"></path><path d="M361.8,213.47l-.61,1.37-.57,1.25c-.39.83-.8,1.63-1.2,2.44-.81,1.61-1.69,3.17-2.57,4.74A106.42,106.42,0,0,1,351,232.4c-1.08,1.48-2.18,3-3.36,4.41s-2.43,2.86-3.75,4.26a55.51,55.51,0,0,1-9.09,7.88l-.69.47a5.8,5.8,0,0,1-1.13.59A33.85,33.85,0,0,1,322,252.07a63.58,63.58,0,0,1-9.45-.37,88.82,88.82,0,0,1-8.9-1.5,78.15,78.15,0,0,1-8.64-2.43,5.26,5.26,0,0,1,1.29-10.2l.21,0,8.11-.69c2.7-.24,5.36-.5,7.94-.85,1.29-.17,2.56-.34,3.79-.55s2.43-.47,3.57-.72a19.42,19.42,0,0,0,5.37-1.92l-1.81,1.06a47.26,47.26,0,0,0,5.38-5.89c.88-1.11,1.73-2.29,2.56-3.5s1.67-2.45,2.48-3.71c1.59-2.55,3.17-5.18,4.65-7.87.76-1.34,1.47-2.71,2.2-4.06l2-3.92.24-.47a10.42,10.42,0,0,1,18.78,9Z" style="fill: rgb(255, 195, 189); transform-origin: 327.065px 225.512px;" id="elgu0z43u54l5" class="animable"></path><path d="M365,195.79c4.81,17.28-7.4,34.46-7.4,34.46-6.47,1.85-23.52-4.79-27.14-11.15,0,0,5.95-16.34,13-25C350,186,362.17,185.66,365,195.79Z" style="fill: rgb(38, 50, 56); transform-origin: 348.291px 209.332px;" id="elquzexwbqykf" class="animable"></path><path d="M298.31,238l1,6.1c-1.34,6.34-9.2,3.22-9.2,3.22l-4.38,0a3.27,3.27,0,0,1-3.06-2.92l-.7-4.26a3.41,3.41,0,0,1,2.48-4.06l3.77-.64a6.75,6.75,0,0,1,3.28.25Z" style="fill: rgb(255, 195, 189); transform-origin: 290.598px 241.715px;" id="ellud2ij3lxdf" class="animable"></path></g><defs>     <filter id="active" height="200%">         <feMorphology in="SourceAlpha" result="DILATED" operator="dilate" radius="2"></feMorphology>                <feFlood flood-color="#32DFEC" flood-opacity="1" result="PINK"></feFlood>        <feComposite in="PINK" in2="DILATED" operator="in" result="OUTLINE"></feComposite>        <feMerge>            <feMergeNode in="OUTLINE"></feMergeNode>            <feMergeNode in="SourceGraphic"></feMergeNode>        </feMerge>    </filter>    <filter id="hover" height="200%">        <feMorphology in="SourceAlpha" result="DILATED" operator="dilate" radius="2"></feMorphology>                <feFlood flood-color="#ff0000" flood-opacity="0.5" result="PINK"></feFlood>        <feComposite in="PINK" in2="DILATED" operator="in" result="OUTLINE"></feComposite>        <feMerge>            <feMergeNode in="OUTLINE"></feMergeNode>            <feMergeNode in="SourceGraphic"></feMergeNode>        </feMerge>            <feColorMatrix type="matrix" values="0   0   0   0   0                0   1   0   0   0                0   0   0   0   0                0   0   0   1   0 "></feColorMatrix>    </filter></defs></svg>